<?xml version="1.0" encoding="UTF-8" standalone="no"?>
<svg
   id="Layer_1"
   data-name="Layer 1"
   viewBox="0 0 994.71 151.65"
   version="1.1"
   sodipodi:docname="icon_left_brand.svg"
   inkscape:version="1.4 (e7c3feb1, 2024-10-09)"
   xmlns:inkscape="http://www.inkscape.org/namespaces/inkscape"
   xmlns:sodipodi="http://sodipodi.sourceforge.net/DTD/sodipodi-0.dtd"
   xmlns="http://www.w3.org/2000/svg"
   xmlns:svg="http://www.w3.org/2000/svg">
  <sodipodi:namedview
     id="namedview18"
     pagecolor="#ffffff"
     bordercolor="#999999"
     borderopacity="1"
     inkscape:showpageshadow="2"
     inkscape:pageopacity="0"
     inkscape:pagecheckerboard="0"
     inkscape:deskcolor="#d1d1d1"
     inkscape:zoom="0.68663327"
     inkscape:cx="458.76018"
     inkscape:cy="70.634504"
     inkscape:window-width="1512"
     inkscape:window-height="840"
     inkscape:window-x="0"
     inkscape:window-y="34"
     inkscape:window-maximized="1"
     inkscape:current-layer="Layer_1" />
  <defs
     id="defs1">
    <style
       id="style1">.cls-1{fill:#fd4b2d;}</style>
  </defs>
  <path
     d="M 6.844894,81.069771 V 68.848457 L 57.263999,46.384989 v 14.299432 l -34.28895,13.95308 v 0.643227 l 34.28895,13.953079 V 103.43428 Z M 88.584211,72.361466 V 104.37438 H 73.74051 V 49.056856 h 14.002558 l 0.197916,11.429649 q 2.325513,-5.789043 6.580707,-8.955699 4.255195,-3.166657 10.637989,-3.166657 8.60934,0 13.80464,5.541649 5.19529,5.541648 5.19529,15.289012 v 35.17957 h -14.8437 V 71.767718 q 0,-5.145816 -2.67186,-8.065077 -2.62239,-2.919262 -7.322895,-2.919262 -4.749985,0 -7.768204,3.067699 -2.96874,3.018219 -2.96874,8.510388 z M 136.82623,104.37438 V 49.056856 h 14.8437 v 55.317524 z m 7.42185,-62.541459 q -3.36457,0 -5.73956,-2.226555 -2.37499,-2.226555 -2.37499,-5.393212 0,-3.166656 2.37499,-5.393211 2.37499,-2.226555 5.73956,-2.226555 3.36458,0 5.73957,2.226555 2.42447,2.226555 2.42447,5.393211 0,3.166657 -2.42447,5.393212 -2.37499,2.226555 -5.73957,2.226555 z M 179.1308,72.361466 V 104.37438 H 164.28709 V 49.056856 h 14.00256 l 0.19792,11.429649 q 2.32551,-5.789043 6.58071,-8.955699 4.25519,-3.166657 10.63798,-3.166657 8.60935,0 13.80464,5.541649 5.1953,5.541648 5.1953,15.289012 v 35.17957 H 199.8625 V 71.767718 q 0,-5.145816 -2.67187,-8.065077 -2.62238,-2.919262 -7.32289,-2.919262 -4.74998,0 -7.7682,3.067699 -2.96874,3.018219 -2.96874,8.510388 z m 48.19254,-23.30461 h 14.89318 v 58.137834 q 0,9.54944 -5.54165,13.70568 -5.49217,4.15624 -15.09109,4.15624 h -3.01822 v -11.67705 h 1.97916 q 3.71092,0 5.24477,-1.63281 1.53385,-1.58332 1.53385,-4.74998 z m 7.47133,-7.223935 q -3.36457,0 -5.73957,-2.226555 -2.37499,-2.226555 -2.37499,-5.393212 0,-3.166656 2.37499,-5.393211 2.375,-2.226555 5.73957,-2.226555 3.36457,0 5.73956,2.226555 2.42447,2.226555 2.42447,5.393211 0,3.166657 -2.42447,5.393212 -2.37499,2.226555 -5.73956,2.226555 z m 35.47644,63.629999 q -7.91664,0 -13.16141,-4.15624 -5.24478,-4.205712 -5.24478,-12.419226 0,-6.184876 2.96874,-9.697885 2.96874,-3.513009 7.71873,-5.145816 4.74998,-1.632808 10.19267,-2.127598 7.12498,-0.692706 10.24216,-1.434891 3.16665,-0.791664 3.16665,-3.513009 V 66.72086 q 0,-3.513009 -2.27603,-5.44269 -2.22656,-1.929682 -6.38279,-1.929682 -4.30467,0 -6.92706,1.880203 -2.62239,1.830723 -3.51301,4.502589 l -13.60673,-2.276034 q 2.1276,-7.174456 8.46091,-11.132776 6.38279,-3.958321 15.63537,-3.958321 5.93748,0 11.28121,1.880203 5.39321,1.880202 8.75778,6.036438 3.41406,4.106757 3.41406,10.835902 v 37.257688 h -14.05204 v -7.669244 h -0.49479 q -2.02864,3.859364 -6.03644,6.333314 -4.0078,2.42447 -10.1432,2.42447 z m 4.20572,-10.44007 q 5.19529,0 8.46091,-3.018219 3.31509,-3.018219 3.31509,-7.421851 v -5.986959 q -0.89062,0.643227 -2.91926,1.138017 -1.97916,0.445311 -4.20571,0.841143 -2.22656,0.346353 -3.85937,0.544269 -4.10675,0.593748 -6.63018,2.325513 -2.52343,1.731765 -2.52343,5.046859 0,3.216135 2.32551,4.898421 2.37499,1.632807 6.03644,1.632807 z m 63.92689,10.44007 q -8.36195,0 -14.44787,-3.56249 -6.03644,-3.611965 -9.35153,-9.994757 -3.26562,-6.432271 -3.26562,-14.942659 0,-8.559868 3.26562,-14.992138 3.31509,-6.432271 9.35153,-9.994759 6.08592,-3.611968 14.44787,-3.611968 9.84632,0 16.42703,4.947901 6.5807,4.898421 8.16403,13.458289 l -13.80464,2.572908 q -0.9401,-4.304673 -3.66145,-6.778623 -2.67186,-2.52343 -6.97654,-2.52343 -5.93748,0 -9.00517,4.700506 -3.0677,4.651026 -3.0677,12.171835 0,7.42185 3.0677,12.171835 3.06769,4.700505 9.00517,4.700505 4.30468,0 7.0755,-2.572908 2.77083,-2.622387 3.66145,-7.075498 l 13.80464,2.52343 q -1.58333,8.757783 -8.16403,13.804641 -6.58071,4.99738 -16.52599,4.99738 z m 49.72639,-33.101454 v 32.012914 h -14.8437 V 30.650666 h 14.54683 v 28.994696 q 2.42447,-5.393211 6.5807,-8.312472 4.15624,-2.968741 10.29164,-2.968741 8.60934,0 13.80464,5.541649 5.24477,5.541648 5.24477,15.289012 v 35.17957 H 408.86181 V 71.767718 q 0,-5.145816 -2.67186,-8.065077 -2.62239,-2.919262 -7.3229,-2.919262 -4.74998,0 -7.7682,3.067699 -2.96874,3.018219 -2.96874,8.510388 z m 73.22892,33.101454 q -8.46091,0 -14.59631,-3.46353 -6.13539,-3.46353 -9.45049,-9.846322 -3.26561,-6.382791 -3.26561,-15.140575 0,-8.559868 3.26561,-14.992138 3.3151,-6.432271 9.25258,-10.044238 5.98696,-3.611968 14.05203,-3.611968 7.22394,0 13.11194,3.067699 5.888,3.067698 9.35153,9.302052 3.51301,6.234355 3.51301,15.684845 v 4.156236 h -37.85144 q 0.2474,6.778624 3.76041,10.242154 3.51301,3.46353 9.10413,3.46353 3.90885,0 6.67967,-1.632807 2.8203,-1.682286 4.0078,-4.898421 l 13.45829,2.523429 q -2.02864,6.877581 -8.41143,11.033814 -6.33332,4.15624 -15.98172,4.15624 z M 448.84084,71.272928 h 23.45305 q -0.54427,-5.393211 -3.46353,-8.559867 -2.91926,-3.166657 -8.06508,-3.166657 -5.34373,0 -8.41143,3.315094 -3.0677,3.265614 -3.51301,8.41143 z m 72.88257,34.189992 q -8.46091,0 -14.59631,-3.46353 -6.13539,-3.46353 -9.45049,-9.846322 -3.26561,-6.382791 -3.26561,-15.140575 0,-8.559868 3.26561,-14.992138 3.3151,-6.432271 9.25258,-10.044238 5.98696,-3.611968 14.05203,-3.611968 7.22394,0 13.11194,3.067699 5.888,3.067698 9.35153,9.302052 3.51301,6.234355 3.51301,15.684845 v 4.156236 h -37.85144 q 0.2474,6.778624 3.76041,10.242154 3.51301,3.46353 9.10413,3.46353 3.90885,0 6.67967,-1.632807 2.8203,-1.682286 4.0078,-4.898421 l 13.45829,2.523429 q -2.02864,6.877581 -8.41143,11.033814 -6.33332,4.15624 -15.98172,4.15624 z M 509.20522,71.272928 h 23.45305 q -0.54427,-5.393211 -3.46353,-8.559867 -2.91926,-3.166657 -8.06508,-3.166657 -5.34373,0 -8.41143,3.315094 -3.0677,3.265614 -3.51301,8.41143 z m 75.35655,-22.216072 v 11.330691 h -10.34111 v 27.807201 q 0,5.145816 5.04686,5.145816 0.84114,0 2.32551,-0.197916 1.53385,-0.247395 2.37499,-0.445311 l 2.1276,11.132773 q -2.47395,0.74219 -4.9479,1.03906 -2.42447,0.29688 -4.65103,0.29688 -8.31247,0 -12.7161,-4.0078 -4.40363,-4.057282 -4.40363,-11.677048 V 60.387547 h -7.61977 V 49.056856 h 7.61977 V 35.89544 h 14.8437 v 13.161416 z m 25.58061,56.406064 q -7.91665,0 -13.16142,-4.15624 -5.24477,-4.205712 -5.24477,-12.419226 0,-6.184876 2.96874,-9.697885 2.96874,-3.513009 7.71872,-5.145816 4.74999,-1.632808 10.19268,-2.127598 7.12497,-0.692706 10.24215,-1.434891 3.16666,-0.791664 3.16666,-3.513009 V 66.72086 q 0,-3.513009 -2.27604,-5.44269 -2.22655,-1.929682 -6.38279,-1.929682 -4.30467,0 -6.92706,1.880203 -2.62239,1.830723 -3.51301,4.502589 l -13.60673,-2.276034 q 2.1276,-7.174456 8.46091,-11.132776 6.3828,-3.958321 15.63537,-3.958321 5.93748,0 11.28121,1.880203 5.39321,1.880202 8.75779,6.036438 3.41405,4.106757 3.41405,10.835902 V 104.37438 H 626.8168 v -7.669244 h -0.49479 q -2.02864,3.859364 -6.03644,6.333314 -4.0078,2.42447 -10.14319,2.42447 z m 4.20571,-10.44007 q 5.1953,0 8.46091,-3.018219 3.31509,-3.018219 3.31509,-7.421851 v -5.986959 q -0.89062,0.643227 -2.91926,1.138017 -1.97916,0.445311 -4.20571,0.841143 -2.22656,0.346353 -3.85937,0.544269 -4.10675,0.593748 -6.63018,2.325513 -2.52343,1.731765 -2.52343,5.046859 0,3.216135 2.32551,4.898421 2.37499,1.632807 6.03644,1.632807 z m 54.0311,-22.661384 v 32.012914 h -14.8437 V 30.650666 h 14.54683 v 28.994696 q 2.42447,-5.393211 6.58071,-8.312472 4.15623,-2.968741 10.29163,-2.968741 8.60935,0 13.80464,5.541649 5.24478,5.541648 5.24478,15.289012 v 35.17957 H 689.1109 V 71.767718 q 0,-5.145816 -2.67187,-8.065077 -2.62239,-2.919262 -7.32289,-2.919262 -4.74999,0 -7.76821,3.067699 -2.96874,3.018219 -2.96874,8.510388 z m 58.8305,32.953014 q -3.61196,0 -6.08591,-2.42447 -2.47395,-2.47395 -2.47395,-6.085916 0,-3.611967 2.47395,-6.036438 2.47395,-2.47395 6.08591,-2.47395 3.61197,0 6.08592,2.47395 2.47395,2.424471 2.47395,6.036438 0,3.611966 -2.47395,6.085916 -2.47395,2.42447 -6.08592,2.42447 z m 43.4921,0 q -6.38279,0 -11.47913,-3.26561 -5.09634,-3.315094 -8.11456,-9.648407 -2.96874,-6.382791 -2.96874,-15.585886 0,-9.45049 3.0677,-15.783802 3.0677,-6.333313 8.16404,-9.499969 5.09633,-3.166657 11.23173,-3.166657 4.7005,0 7.81768,1.583329 3.11718,1.583328 4.99738,3.908841 1.92968,2.325513 2.91926,4.502589 h 0.49479 V 30.650666 h 14.8437 v 73.723714 h -14.5963 v -8.85674 h -0.74219 q -1.03906,2.226555 -2.96874,4.50259 -1.92968,2.22655 -5.04686,3.7604 -3.11717,1.53385 -7.61976,1.53385 z m 4.55207,-11.924437 q 5.6406,0 8.75778,-4.552068 3.11718,-4.552069 3.11718,-12.072877 0,-7.520809 -3.11718,-12.023398 -3.0677,-4.50259 -8.75778,-4.50259 -5.83853,0 -8.85675,4.651027 -3.01821,4.601547 -3.01821,11.874961 0,7.322892 3.01821,11.973919 3.0677,4.651026 8.85675,4.651026 z m 64.07529,12.072877 q -8.46091,0 -14.5963,-3.46353 -6.1354,-3.46353 -9.45049,-9.846322 -3.26562,-6.382791 -3.26562,-15.140575 0,-8.559868 3.26562,-14.992138 3.31509,-6.432271 9.25257,-10.044238 5.98696,-3.611968 14.05204,-3.611968 7.22393,0 13.11193,3.067699 5.888,3.067698 9.35154,9.302052 3.513,6.234355 3.513,15.684845 v 4.156236 h -37.85143 q 0.24739,6.778624 3.7604,10.242154 3.51301,3.46353 9.10414,3.46353 3.90884,0 6.67966,-1.632807 2.82031,-1.682286 4.0078,-4.898421 l 13.45829,2.523429 q -2.02864,6.877581 -8.41143,11.033814 -6.33331,4.15624 -15.98172,4.15624 z M 826.81096,71.272928 h 23.45305 q -0.54427,-5.393211 -3.46353,-8.559867 -2.91926,-3.166657 -8.06508,-3.166657 -5.34373,0 -8.41143,3.315094 -3.06769,3.265614 -3.51301,8.41143 z m 61.65081,33.101452 -20.38535,-55.317524 h 15.7838 l 9.30206,28.697822 q 1.13801,3.710925 2.07812,7.471329 0.98958,3.760405 1.8802,7.619767 0.84114,-3.859362 1.73176,-7.570288 0.9401,-3.760404 2.1276,-7.520808 l 9.20309,-28.697822 h 15.58589 L 905.33411,104.37438 Z M 987.86513,81.069771 937.44602,103.43428 V 89.233807 l 34.33843,-13.9036 V 74.637501 L 937.44602,60.684421 V 46.384989 l 50.41911,22.463468 z"
     id="text19"
     style="font-weight:bold;font-size:101.333px;line-height:2;font-family:Inter;-inkscape-font-specification:'Inter, Bold';letter-spacing:0px;word-spacing:0px;text-orientation:upright;fill:#a97bff;stroke-width:10;stroke-linecap:round;stroke-linejoin:round"
     aria-label="&lt;ninjacheetah.dev&gt;" />
</svg>
