<?xml version="1.0" encoding="UTF-8" standalone="no"?>
<!DOCTYPE svg PUBLIC "-//W3C//DTD SVG 1.1//EN" "http://www.w3.org/Graphics/SVG/1.1/DTD/svg11.dtd"
[
<!ATTLIST g
  xmlns:vectornator CDATA #FIXED "http://vectornator.io"
  vectornator:layerName CDATA #IMPLIED >
<!ATTLIST g
  xmlns:vectornator CDATA #FIXED "http://vectornator.io"
  vectornator:mask CDATA #IMPLIED >
<!ATTLIST text
  xmlns:vectornator CDATA #FIXED "http://vectornator.io"
  vectornator:width CDATA #IMPLIED >

<!ATTLIST path
  xmlns:vectornator CDATA #FIXED "http://vectornator.io"
  vectornator:blendMode CDATA #IMPLIED >
<!ATTLIST path
  xmlns:vectornator CDATA #FIXED "http://vectornator.io"
  vectornator:shadowColor CDATA #IMPLIED >
<!ATTLIST path
  xmlns:vectornator CDATA #FIXED "http://vectornator.io"
  vectornator:shadowOpacity CDATA #IMPLIED >
<!ATTLIST path
  xmlns:vectornator CDATA #FIXED "http://vectornator.io"
  vectornator:shadowRadius CDATA #IMPLIED >
<!ATTLIST path
  xmlns:vectornator CDATA #FIXED "http://vectornator.io"
  vectornator:shadowOffset CDATA #IMPLIED >
<!ATTLIST path
  xmlns:vectornator CDATA #FIXED "http://vectornator.io"
  vectornator:shadowAngle CDATA #IMPLIED >

<!ATTLIST image
  xmlns:vectornator CDATA #FIXED "http://vectornator.io"
  vectornator:blendMode CDATA #IMPLIED >
<!ATTLIST image
  xmlns:vectornator CDATA #FIXED "http://vectornator.io"
  vectornator:shadowColor CDATA #IMPLIED >
<!ATTLIST image
  xmlns:vectornator CDATA #FIXED "http://vectornator.io"
  vectornator:shadowOpacity CDATA #IMPLIED >
<!ATTLIST image
  xmlns:vectornator CDATA #FIXED "http://vectornator.io"
  vectornator:shadowRadius CDATA #IMPLIED >
<!ATTLIST image
  xmlns:vectornator CDATA #FIXED "http://vectornator.io"
  vectornator:shadowOffset CDATA #IMPLIED >
<!ATTLIST image
  xmlns:vectornator CDATA #FIXED "http://vectornator.io"
  vectornator:shadowAngle CDATA #IMPLIED >

<!ATTLIST g
  xmlns:vectornator CDATA #FIXED "http://vectornator.io"
  vectornator:blendMode CDATA #IMPLIED >
<!ATTLIST g
  xmlns:vectornator CDATA #FIXED "http://vectornator.io"
  vectornator:shadowColor CDATA #IMPLIED >
<!ATTLIST g
  xmlns:vectornator CDATA #FIXED "http://vectornator.io"
  vectornator:shadowOpacity CDATA #IMPLIED >
<!ATTLIST g
  xmlns:vectornator CDATA #FIXED "http://vectornator.io"
  vectornator:shadowRadius CDATA #IMPLIED >
<!ATTLIST g
  xmlns:vectornator CDATA #FIXED "http://vectornator.io"
  vectornator:shadowOffset CDATA #IMPLIED >
<!ATTLIST g
  xmlns:vectornator CDATA #FIXED "http://vectornator.io"
  vectornator:shadowAngle CDATA #IMPLIED >

<!ENTITY % SVG.filter.extra.content  "| feDropShadow" >
<!ELEMENT feDropShadow EMPTY>
<!ATTLIST feDropShadow
  xmlns:svg CDATA #FIXED "http://www.w3.org/Graphics/SVG/1.1/DTD/svg11.dtd"
  dx CDATA #IMPLIED>
<!ATTLIST feDropShadow
  xmlns:svg CDATA #FIXED "http://www.w3.org/Graphics/SVG/1.1/DTD/svg11.dtd"
  dy CDATA #IMPLIED>
<!ATTLIST feDropShadow
  xmlns:svg CDATA #FIXED "http://www.w3.org/Graphics/SVG/1.1/DTD/svg11.dtd"
  stdDeviation CDATA #IMPLIED>
<!ATTLIST feDropShadow
  xmlns:svg CDATA #FIXED "http://www.w3.org/Graphics/SVG/1.1/DTD/svg11.dtd"
  flood-opacity CDATA #IMPLIED>
<!ATTLIST feDropShadow
  xmlns:svg CDATA #FIXED "http://www.w3.org/Graphics/SVG/1.1/DTD/svg11.dtd"
  in CDATA #IMPLIED>
<!ATTLIST feDropShadow
  xmlns:svg CDATA #FIXED "http://www.w3.org/Graphics/SVG/1.1/DTD/svg11.dtd"
  result CDATA #IMPLIED>
<!ATTLIST feDropShadow
  xmlns:svg CDATA #FIXED "http://www.w3.org/Graphics/SVG/1.1/DTD/svg11.dtd"
  flood-color CDATA #IMPLIED>
]
>
<!-- Created with Vectornator (http://vectornator.io/) -->
<svg height="100%" stroke-miterlimit="10" style="fill-rule:nonzero;clip-rule:evenodd;stroke-linecap:round;stroke-linejoin:round;" version="1.1" viewBox="0 0 568 320" width="100%" xml:space="preserve" xmlns="http://www.w3.org/2000/svg" xmlns:vectornator="http://vectornator.io" xmlns:xlink="http://www.w3.org/1999/xlink">
<defs>
<clipPath id="TextBounds">
<rect height="61" width="105.841" x="59.6446" y="129.5"/>
</clipPath>
<clipPath id="TextBounds_2">
<rect height="61" width="109.534" x="400.789" y="129.5"/>
</clipPath>
<clipPath id="TextBounds_3">
<rect height="61" width="107.616" x="230.192" y="129.5"/>
</clipPath>
</defs>
<g id="Layer-1" vectornator:layerName="Layer 1">
<path d="M64.8169 75.9828C63.8003 75.9828 62.7958 76.1165 61.8372 76.3247C60.8786 76.5329 59.9338 76.8085 59.0529 77.204C58.1721 77.5995 57.3451 78.1076 56.5617 78.6694C55.7783 79.2312 55.0787 79.8673 54.4124 80.5744C53.7462 81.2816 53.1344 82.0387 52.6051 82.8703C52.0758 83.7018 51.61 84.6218 51.2374 85.5569C50.8648 86.4919 50.5543 87.4701 50.3581 88.4877C50.162 89.5052 50.065 90.5348 50.065 91.6139L50.065 108.71L50.065 125.807L50.065 142.903L50.065 160L50.065 177.097L50.065 194.193L50.065 211.29L50.065 228.386C50.065 229.465 50.162 230.544 50.3581 231.561C50.5543 232.579 50.8648 233.557 51.2374 234.492C51.61 235.427 52.0758 236.298 52.6051 237.13C53.1344 237.961 53.7462 238.767 54.4124 239.474C55.0787 240.182 55.7783 240.818 56.5617 241.379C57.3451 241.941 58.172 242.401 59.0529 242.796C59.9338 243.192 60.8786 243.516 61.8372 243.724C62.7959 243.932 63.8003 244.017 64.8169 244.017L76.7356 244.017L88.7032 244.017L100.622 244.017L112.589 244.017L124.508 244.017L136.476 244.017L148.394 244.017L160.362 244.017C161.379 244.017 162.383 243.932 163.342 243.724C164.3 243.516 165.196 243.192 166.077 242.796C166.958 242.401 167.785 241.941 168.568 241.379C169.352 240.818 170.1 240.182 170.766 239.474C171.433 238.767 172.045 237.961 172.574 237.13C173.103 236.298 173.569 235.427 173.942 234.492C174.314 233.557 174.576 232.579 174.772 231.561C174.968 230.544 175.065 229.465 175.065 228.386L175.065 211.29L175.065 194.193L175.065 177.097L175.065 160L175.065 142.903L175.065 125.807L175.065 108.71L136.476 75.9828L124.508 75.9828L112.589 75.9828L100.622 75.9828L88.7032 75.9828L76.7356 75.9828L64.8169 75.9828Z" fill="none" fill-rule="evenodd" opacity="1" stroke="#000000" stroke-linecap="round" stroke-linejoin="round" stroke-width="5.1"/>
<path d="M236.252 75.9828C235.235 75.9828 234.231 76.1165 233.272 76.3247C232.314 76.5329 231.369 76.8085 230.488 77.204C229.607 77.5995 228.78 78.1076 227.997 78.6694C227.213 79.2312 226.514 79.8673 225.847 80.5744C225.181 81.2816 224.569 82.0387 224.04 82.8703C223.511 83.7018 223.045 84.6218 222.672 85.5569C222.3 86.4919 221.989 87.4701 221.793 88.4877C221.597 89.5052 221.5 90.5348 221.5 91.6139L221.5 108.71L221.5 125.807L221.5 142.903L221.5 160L221.5 177.097L221.5 194.193L221.5 211.29L221.5 228.386C221.5 229.465 221.597 230.544 221.793 231.561C221.989 232.579 222.3 233.557 222.672 234.492C223.045 235.427 223.511 236.298 224.04 237.13C224.569 237.961 225.181 238.767 225.847 239.474C226.514 240.182 227.213 240.818 227.997 241.379C228.78 241.941 229.607 242.401 230.488 242.796C231.369 243.192 232.314 243.516 233.272 243.724C234.231 243.932 235.235 244.017 236.252 244.017L248.171 244.017L260.138 244.017L272.057 244.017L284.024 244.017L295.943 244.017L307.911 244.017L319.829 244.017L331.797 244.017C332.814 244.017 333.818 243.932 334.777 243.724C335.735 243.516 336.631 243.192 337.512 242.796C338.393 242.401 339.22 241.941 340.003 241.379C340.787 240.818 341.535 240.182 342.201 239.474C342.868 238.767 343.48 237.961 344.009 237.13C344.538 236.298 345.004 235.427 345.377 234.492C345.749 233.557 346.011 232.579 346.207 231.561C346.403 230.544 346.5 229.465 346.5 228.386L346.5 211.29L346.5 194.193L346.5 177.097L346.5 160L346.5 142.903L346.5 125.807L346.5 108.71L307.911 75.9828L295.943 75.9828L284.024 75.9828L272.057 75.9828L260.138 75.9828L248.171 75.9828L236.252 75.9828Z" fill="none" fill-rule="evenodd" opacity="1" stroke="#000000" stroke-linecap="round" stroke-linejoin="round" stroke-width="5.1"/>
<path d="M407.808 75.9828C406.791 75.9828 405.787 76.1165 404.828 76.3247C403.87 76.5329 402.925 76.8085 402.044 77.204C401.163 77.5995 400.336 78.1076 399.553 78.6694C398.769 79.2312 398.07 79.8673 397.404 80.5744C396.737 81.2816 396.126 82.0387 395.596 82.8703C395.067 83.7018 394.601 84.6218 394.229 85.5569C393.856 86.4919 393.546 87.4701 393.349 88.4877C393.153 89.5052 393.056 90.5348 393.056 91.6139L393.056 108.71L393.056 125.807L393.056 142.903L393.056 160L393.056 177.097L393.056 194.193L393.056 211.29L393.056 228.386C393.056 229.465 393.153 230.544 393.349 231.561C393.545 232.579 393.856 233.557 394.229 234.492C394.601 235.427 395.067 236.298 395.596 237.13C396.126 237.961 396.737 238.767 397.404 239.474C398.07 240.182 398.77 240.818 399.553 241.379C400.336 241.941 401.163 242.401 402.044 242.796C402.925 243.192 403.87 243.516 404.828 243.724C405.787 243.932 406.791 244.017 407.808 244.017L419.727 244.017L431.694 244.017L443.613 244.017L455.581 244.017L467.499 244.017L479.467 244.017L491.386 244.017L503.353 244.017C504.37 244.017 505.374 243.932 506.333 243.724C507.292 243.516 508.187 243.192 509.068 242.796C509.949 242.401 510.776 241.941 511.56 241.379C512.343 240.818 513.091 240.182 513.758 239.474C514.424 238.767 515.036 237.961 515.565 237.13C516.094 236.298 516.56 235.427 516.933 234.492C517.305 233.557 517.567 232.579 517.763 231.561C517.959 230.544 518.056 229.465 518.056 228.386L518.056 211.29L518.056 194.193L518.056 177.097L518.056 160L518.056 142.903L518.056 125.807L518.056 108.71L479.467 75.9828L467.499 75.9828L455.581 75.9828L443.613 75.9828L431.694 75.9828L419.727 75.9828L407.808 75.9828Z" fill="none" fill-rule="evenodd" opacity="1" stroke="#000000" stroke-linecap="round" stroke-linejoin="round" stroke-width="5.1"/>
<g fill="#000000" opacity="1" stroke="none">
<path clip-path="url(#TextBounds)" d="M85.4341 150.228L89.6954 150.228C89.5001 144.741 84.4398 140.64 77.4086 140.64C70.4485 140.64 64.9798 144.688 64.9798 150.796C64.9798 155.696 68.5309 158.608 74.2126 160.242L78.687 161.52C82.5222 162.585 85.9312 163.935 85.9312 167.557C85.9312 171.534 82.0961 174.162 77.0535 174.162C72.7212 174.162 68.886 172.244 68.5309 168.125L63.9855 168.125C64.4116 174.091 69.2411 178.139 77.0535 178.139C85.4341 178.139 90.1926 173.523 90.1926 167.628C90.1926 160.81 83.7296 158.608 79.9654 157.614L76.2723 156.62C73.5734 155.909 69.2411 154.489 69.2411 150.583C69.2411 147.103 72.4371 144.546 77.2666 144.546C81.6699 144.546 85.008 146.641 85.4341 150.228Z" fill-rule="evenodd"/>
<path clip-path="url(#TextBounds)" d="M98.9286 141.137L94.3122 141.137L107.664 177.5L112.21 177.5L125.562 141.137L120.945 141.137L110.15 171.747L109.724 171.747L98.9286 141.137Z" fill-rule="evenodd"/>
<path clip-path="url(#TextBounds)" d="M156.102 152.5L160.647 152.5C159.298 145.469 153.403 140.64 145.732 140.64C136.411 140.64 129.824 147.813 129.824 159.318C129.824 170.824 136.358 177.997 146.017 177.997C154.681 177.997 160.86 172.227 160.86 163.225L160.86 159.318L147.011 159.318L147.011 163.225L156.599 163.225C156.475 169.759 152.178 173.878 146.017 173.878C139.269 173.878 134.085 168.764 134.085 159.318C134.085 149.872 139.269 144.759 145.732 144.759C150.988 144.759 154.557 147.724 156.102 152.5Z" fill-rule="evenodd"/>
</g>
<g fill="#000000" opacity="1" stroke="none">
<path clip-path="url(#TextBounds_2)" d="M406.693 177.5L411.096 177.5L411.096 164.219L419.05 164.219C427.52 164.219 431.337 159.07 431.337 152.642C431.337 146.215 427.52 141.137 418.979 141.137L406.693 141.137L406.693 177.5ZM411.096 160.313L411.096 145.043L418.837 145.043C424.75 145.043 427.005 148.274 427.005 152.642C427.005 157.01 424.75 160.313 418.908 160.313L411.096 160.313Z" fill-rule="evenodd"/>
<path clip-path="url(#TextBounds_2)" d="M467.275 141.137L462.942 141.137L462.942 169.759L462.587 169.759L442.701 141.137L438.44 141.137L438.44 177.5L442.843 177.5L442.843 148.949L443.198 148.949L463.013 177.5L467.275 177.5L467.275 141.137Z" fill-rule="evenodd"/>
<path clip-path="url(#TextBounds_2)" d="M500.939 152.5L505.485 152.5C504.135 145.469 498.241 140.64 490.57 140.64C481.249 140.64 474.661 147.813 474.661 159.318C474.661 170.824 481.195 177.997 490.854 177.997C499.519 177.997 505.698 172.227 505.698 163.225L505.698 159.318L491.849 159.318L491.849 163.225L501.437 163.225C501.312 169.759 497.015 173.878 490.854 173.878C484.107 173.878 478.923 168.764 478.923 159.318C478.923 149.872 484.107 144.759 490.57 144.759C495.826 144.759 499.395 147.724 500.939 152.5Z" fill-rule="evenodd"/>
</g>
<g fill="#000000" opacity="1" stroke="none">
<path clip-path="url(#TextBounds_3)" d="M237.587 141.137L232.97 141.137L246.322 177.5L250.868 177.5L264.22 141.137L259.603 141.137L248.808 171.747L248.382 171.747L237.587 141.137Z" fill-rule="evenodd"/>
<path clip-path="url(#TextBounds_3)" d="M280.768 178.068C286.308 178.068 290.356 175.298 291.635 171.179L287.586 170.043C286.521 172.884 284.053 174.304 280.768 174.304C275.85 174.304 272.459 171.126 272.263 165.284L292.061 165.284L292.061 163.509C292.061 153.353 286.024 149.872 280.342 149.872C272.956 149.872 268.055 155.696 268.055 164.077C268.055 172.457 272.885 178.068 280.768 178.068ZM272.263 161.662C272.548 157.419 275.548 153.637 280.342 153.637C284.888 153.637 287.799 157.046 287.799 161.662L272.263 161.662Z" fill-rule="evenodd"/>
<path clip-path="url(#TextBounds_3)" d="M309.532 178.068C315.569 178.068 319.547 174.375 320.257 169.546L316.067 169.546C315.285 172.528 312.8 174.304 309.532 174.304C304.561 174.304 301.365 170.185 301.365 163.864C301.365 157.685 304.632 153.637 309.532 153.637C313.226 153.637 315.427 155.909 316.067 158.395L320.257 158.395C319.547 153.282 315.214 149.872 309.461 149.872C302.075 149.872 297.175 155.696 297.175 164.006C297.175 172.173 301.862 178.068 309.532 178.068Z" fill-rule="evenodd"/>
<path clip-path="url(#TextBounds_3)" d="M329.419 177.784C331.177 177.784 332.615 176.346 332.615 174.588C332.615 172.83 331.177 171.392 329.419 171.392C327.661 171.392 326.223 172.83 326.223 174.588C326.223 176.346 327.661 177.784 329.419 177.784Z" fill-rule="evenodd"/>
</g>
<path d="M31.6871 23.2518L536.313 23.2518C541.852 23.2518 546.342 27.7013 546.342 33.19L546.342 286.81C546.342 292.299 541.852 296.748 536.313 296.748L31.6871 296.748C26.148 296.748 21.6578 292.299 21.6578 286.81L21.6578 33.19C21.6578 27.7013 26.148 23.2518 31.6871 23.2518Z" fill="none" fill-rule="evenodd" opacity="1" stroke="#000000" stroke-linecap="round" stroke-linejoin="round" stroke-width="5.1"/>
</g>
</svg>
